<svg xmlns="http://www.w3.org/2000/svg" viewBox="0 0 492.62 492.62"><defs><style>.a{fill:#3c3c73;}.b{fill:#6bc395;fill-rule:evenodd;}</style></defs><circle class="a" cx="246.31" cy="246.31" r="246.31"/><path class="b" d="M435.34,262.3c8,4.59,19.53,20.67,19.53,20.67l5.74,8,11.49,8,11.48-3.45,17.23-9.19,12.63,19.53,4.6,17.23-12.64-4.6-16.08-8,13.79,21.83-13.79-6.9L471,331.21l-24.12,8-18.38,16.08-4.59,27.56c-2.59,1.33-3.88,2.9-8.62-1.15l-1.18-18.57-1.83-6.12A99.57,99.57,0,0,0,391,360.78a78.91,78.91,0,0,0-20,14.65c-3,2.71-3,7.5-3.45,12.05.65,3.23,1.41,6.35,4.31,7.33l5.44-1.18,3.75-7.87c4.21-1.6,10-.08,14.21.86.14,3.43-4,5.06-6,7-2.8.83-3.48,3.79-4.45,6.46,3.76,2.3,9.83,2.43,9.91,7.32-6.93,2.14-7.91,4.38-5.75,12.2l2,9.62c6.5-.17,12.19,2.12,17.95,4.17l8.76-4.45,5.13-2.71c2-1.43,3.63-.9,5.21.34-.57,1.75-.1,3.35,2,4.72a5.25,5.25,0,0,0,4.31-3.45c3-.89,6.42-.46,10.18.95l23.86,16.82L491,466.73l36.28,29.86,7.84,15.3-4.4,19.16-6.9,19.33-15.07,7.2c-4.4,4.44-2.7,9.63-8.46,22.28L487.6,593.64l-12.06-1.72c.64,7.63-5.74,18.07-12.63,28.71l-16.08,3.45c-5.79.73-11.66,1.23-11.48,18.38,0,0-16.14,5.65-16.66,11.48-.86,9.76-1.72,28.71-1.72,28.71-6.11-1.41-12-1.28-19.53-11.48l-1.14-64.32,2.29-20.67-8-45.94,1.15-13.78-9.19-21.83c-3.69-6.69-8.27-12.67-4.59-25.26l33.45-36.9c-6.62-1.27-8.63-.85-15.68-1.93-2.39-.37-7.12,4.07-7.69,2-.63-2.32.47-6.12-3.76-5.92l-5.46-20.38c-5.66-16.13-16.37-12-23.83-18.38-3.46-5.61-6.78-11.32-5.74-20.67,3.24-18.1,6.17-23.61,9-26.56l-3-.72c-3.87,6.9-4.35,10.27-4.89,14.64-1.47.42-2.36,2.37-4.88,0,0-6.19-.62-12.61,1.15-18.09,2.16-7.44,5.83-10.73,9.48-14.06l21.82-17.23L394,291v-9.19Z" transform="translate(-254.38 -255.12)"/><path class="b" d="M578.56,267.53c.45,5.3-3.69,5.37,1.62,16.24,8.24.72,11.57,5.36,16.24,8.93,6,6.1,9.22,3.84,13.81,5.69,3.19,4.33,19.07,4,7.31,13.8,7.53-2.14,13.06,2.57,17.87,9.75,6.88,8.28,6.26,9.81,5.68,11.37l-2.44,3.25c-.46-2.85-1.38-4.89-4.87-2.44,2.85-9.09-3.32-7.37-8.12-7.31,0,0-.81-3.25-8.12-4.06s-8.12,1.62-8.12,1.62l2.43,5.69,14,4.39c1.65,5,2.83,10.75,7.88,10.23v6.49s-14.62,12.19-12.18,15.43,8.93,13,8.93,13l9.75,1.62,10.56-6.49,4.06-8.13c4.33,2.11,11.63-4,14.93,7.6,1,3.6,6.77,3.56,10.24,5.4L676,383.66l8.12,8.12L695.5,395l7.31,8.93-6.67-3.6-11.66.73-9.07-6.5s-5.08-12.55-10-10.93S637,386.91,637,386.91l-10.56,7.31-3.25,12.18-15.05,7.7,2.06,34.53-13.31,3.91,12.5,32.64,8.93,15.43,16.24,1.62L646,503.85,656.52,499l4.87,11.37,16.25,2.44-4.06,10.56L662.21,533.9l8.93,12.19L663,567.2l-7.31,8.93-8.12,18.68-3.25,19.49,6.5,17.87,5.68,13,25.18-5.68,30-30.05c8.36-7.1,13.23-15.83,17.35-28.42,11.1-32.83,11.29-55.29,15.43-82.84-2.22-22.82.74-32.18-8.26-72.66-7.64-22.66-17.11-42.37-28.58-58.9C693,347.73,680.9,326.25,660.58,313a156.69,156.69,0,0,0-45.48-31.68c-12.18-7.71-24.36-10.53-36.54-13.8Z" transform="translate(-254.38 -255.12)"/></svg>