<svg xmlns="http://www.w3.org/2000/svg" viewBox="0 0 492.07 490.33"><defs><style>.a{fill:#6bc395;}.b{fill:#b8b8c0;}</style></defs><path class="a" d="M385.46,170.67H278.79A106.78,106.78,0,0,0,172.13,277.33V384A106.79,106.79,0,0,0,278.79,490.67H385.46A106.8,106.8,0,0,0,492.13,384V277.33A106.79,106.79,0,0,0,385.46,170.67Zm-106.67,237a21.33,21.33,0,1,1,21.34-21.33A21.33,21.33,0,0,1,278.79,407.65Zm0-106.66a21.34,21.34,0,1,1,21.34-21.34A21.33,21.33,0,0,1,278.79,301ZM385.46,407.65a21.33,21.33,0,1,1,21.33-21.33A21.33,21.33,0,0,1,385.46,407.65Zm0-106.66a21.34,21.34,0,1,1,21.33-21.34A21.33,21.33,0,0,1,385.46,301Z" transform="translate(-0.06 -0.34)"/><path class="b" d="M192,149.33A21.33,21.33,0,1,0,170.67,128,21.33,21.33,0,0,0,192,149.33ZM149.33,192A21.33,21.33,0,1,0,128,213.33,21.33,21.33,0,0,0,149.33,192Zm-4.69,145.62a21.33,21.33,0,0,0-3.29-30,68.48,68.48,0,0,1-5.35-4.87L61.1,226.86a64.11,64.11,0,0,1,.62-90.52l75.94-74.9A63.55,63.55,0,0,1,182.59,43h.47a63.58,63.58,0,0,1,45.12,19.05l74.75,75.86c1.22,1.24,2.37,2.5,3.48,3.82a21.39,21.39,0,0,0,32.79-27.48c-1.77-2.13-3.63-4.14-5.67-6.23l-75-75.92a106.66,106.66,0,0,0-150.85-1.05h0L31.77,106a106.81,106.81,0,0,0-1.05,150.85l74.9,76a103.86,103.86,0,0,0,9,8.13,21.33,21.33,0,0,0,30-3.26h0Z" transform="translate(-0.06 -0.34)"/></svg>