<svg xmlns="http://www.w3.org/2000/svg" viewBox="0 0 890 766"><defs><style>.a{fill:#f2f2f2;}.b{fill:#f5df00;}.c{fill:#cbcbd4;}.d{fill:none;}</style></defs><path class="a" d="M73.49,379.32A69.59,69.59,0,0,0,3.9,448.9h0a69.56,69.56,0,0,0,136.68,18.26,55.95,55.95,0,0,1-63.34-55.74h0a56.2,56.2,0,0,1,9.26-30.87A69.33,69.33,0,0,0,73.49,379.32Z" transform="translate(-3.9 -61.9)"/><circle class="b" cx="821.92" cy="387" r="68.08"/><path class="c" d="M87.21,368.73C122.48,199.19,273.05,71.4,452.9,71.4c179.41,0,329.67,127.15,365.42,296.07,2.47-.22,5-.35,7.5-.35.57,0,1.13,0,1.69,0A382.24,382.24,0,0,0,452.9,62.4,382.43,382.43,0,0,0,78.23,367.45,82.59,82.59,0,0,1,87.21,368.73Z" transform="translate(-3.9 -61.9)"/><path class="c" d="M816.62,530C778,695.08,629.59,818.4,452.9,818.4c-177.2,0-326-124-364-289.86a82.47,82.47,0,0,1-9,1.49,382.69,382.69,0,0,0,725.45,63.76,380.12,380.12,0,0,0,20.47-63.27A82,82,0,0,1,816.62,530Z" transform="translate(-3.9 -61.9)"/><rect class="d" x="66" width="766" height="766"/></svg>