<svg xmlns="http://www.w3.org/2000/svg" xmlns:xlink="http://www.w3.org/1999/xlink" viewBox="0 0 890 766"><defs><style>.a{fill:#f2f2f2;}.b{fill:#f5df00;}.c{fill:#cbcbd4;}.d{fill:none;}.e{opacity:0.57;fill:url(#a);}</style><linearGradient id="a" x1="253.85" y1="501.89" x2="558" y2="501.89" gradientUnits="userSpaceOnUse"><stop offset="0.07"/><stop offset="1" stop-opacity="0"/></linearGradient></defs><path class="a" d="M124.58,430.42A69.58,69.58,0,0,0,55,500h0a69.56,69.56,0,0,0,136.68,18.26,56,56,0,0,1-63.35-55.75h0a56.22,56.22,0,0,1,9.26-30.86A69.17,69.17,0,0,0,124.58,430.42Z" transform="translate(-55 -113)"/><circle class="b" cx="821.92" cy="387" r="68.08"/><path class="c" d="M138.31,419.83C173.58,250.28,324.15,122.5,504,122.5c179.41,0,329.67,127.15,365.42,296.07,2.47-.23,5-.36,7.5-.36.56,0,1.13,0,1.69.05a382.68,382.68,0,0,0-727-71.15,379,379,0,0,0-22.23,71.44A82.94,82.94,0,0,1,138.31,419.83Z" transform="translate(-55 -113)"/><path class="c" d="M867.72,581.09C829.11,746.18,680.69,869.5,504,869.5c-177.2,0-326-124-364.06-289.86a82.07,82.07,0,0,1-9,1.49,382.69,382.69,0,0,0,725.46,63.76,379.16,379.16,0,0,0,20.46-63.27A82,82,0,0,1,867.72,581.09Z" transform="translate(-55 -113)"/><rect class="d" x="66" width="766" height="766"/><path class="e" d="M558,262.71A246.33,246.33,0,0,0,294.93,365.77C219.74,479.13,250.67,632,364,707.18h0a246.34,246.34,0,0,0,191.24,34.5,246.36,246.36,0,0,1-78.34-33.95c-113.36-75.2-144.3-228-69.1-341.41h0A246.31,246.31,0,0,1,558,262.72Z" transform="translate(-55 -113)"/></svg>